<?plantuml 1.2026.1?><svg xmlns="http://www.w3.org/2000/svg" xmlns:xlink="http://www.w3.org/1999/xlink" contentStyleType="text/css" data-diagram-type="SEQUENCE" height="1852px" preserveAspectRatio="none" style="width:1814px;height:1852px;background:#FFFFFF;" version="1.1" viewBox="0 0 1814 1852" width="1814px" zoomAndPan="magnify"><title>Diagramme de s&#233;quence &#8212; Mise &#224; jour du statut d'une commande</title><defs/><g><text fill="#000000" font-family="sans-serif" font-size="14" font-weight="bold" lengthAdjust="spacing" textLength="441.7588" x="687.1387" y="29.5332">Diagramme de s&#233;quence &#8212; Mise &#224; jour du statut d'une commande</text><g><title>Page EmployeeCommandes</title><rect fill="#FFFFFF" height="1555.2734" style="stroke:#181818;stroke-width:1;" width="10" x="282.0371" y="187.5313"/></g><g><title>Service commande FE</title><rect fill="#FFFFFF" height="1295.1094" style="stroke:#181818;stroke-width:1;" width="10" x="465.9434" y="217.8828"/></g><g><title>Service commande FE</title><rect fill="#FFFFFF" height="107.4063" style="stroke:#181818;stroke-width:1;" width="10" x="465.9434" y="1559.6953"/></g><g><title>API Express</title><rect fill="#FFFFFF" height="1201.7031" style="stroke:#181818;stroke-width:1;" width="10" x="674.855" y="280.9375"/></g><g><title>API Express</title><rect fill="#FFFFFF" height="30.3516" style="stroke:#181818;stroke-width:1;" width="10" x="674.855" y="1606.3984"/></g><g><title>authMiddleware</title><rect fill="#FFFFFF" height="192.9453" style="stroke:#181818;stroke-width:1;" width="10" x="849.8096" y="311.2891"/></g><g><title>roleMiddleware</title><rect fill="#FFFFFF" height="192.9453" style="stroke:#181818;stroke-width:1;" width="10" x="970.6919" y="534.5859"/></g><g><title>Contr.leur commande</title><rect fill="#FFFFFF" height="694.4063" style="stroke:#181818;stroke-width:1;" width="10" x="1119.1812" y="757.8828"/></g><g><title>Service commande</title><rect fill="#FFFFFF" height="633.7031" style="stroke:#181818;stroke-width:1;" width="10" x="1371.2231" y="788.2344"/></g><g><title>Mod.le Commande</title><rect fill="#FFFFFF" height="91.0547" style="stroke:#181818;stroke-width:1;" width="10" x="1531.7466" y="818.5859"/></g><g><title>Mod.le Commande</title><rect fill="#FFFFFF" height="91.0547" style="stroke:#181818;stroke-width:1;" width="10" x="1531.7466" y="1300.5313"/></g><rect fill="none" height="1409.5156" style="stroke:#000000;stroke-width:1.5;" width="1797.0361" x="10" y="326.2891"/><rect fill="none" height="1179.2188" style="stroke:#000000;stroke-width:1.5;" width="1777.0361" x="20" y="549.5859"/><rect fill="none" height="797.1641" style="stroke:#000000;stroke-width:1.5;" width="1757.0361" x="30" y="924.6406"/><g class="participant-lifeline" data-entity-uid="part1" data-qualified-name="Staff" id="part1-lifeline"><g><title>Employ. .</title><rect fill="#000000" fill-opacity="0.00000" height="1613.9766" width="8" x="84.1274" y="138.8281"/><line style="stroke:#181818;stroke-width:0.5;stroke-dasharray:5,5;" x1="88" x2="88" y1="138.8281" y2="1752.8047"/></g></g><g class="participant-lifeline" data-entity-uid="part2" data-qualified-name="Page" id="part2-lifeline"><g><title>Page EmployeeCommandes</title><rect fill="#000000" fill-opacity="0.00000" height="1613.9766" width="8" x="283.0371" y="138.8281"/><line style="stroke:#181818;stroke-width:0.5;stroke-dasharray:5,5;" x1="286.9341" x2="286.9341" y1="138.8281" y2="1752.8047"/></g></g><g class="participant-lifeline" data-entity-uid="part3" data-qualified-name="CmdFe" id="part3-lifeline"><g><title>Service commande FE</title><rect fill="#000000" fill-opacity="0.00000" height="1613.9766" width="8" x="466.9434" y="138.8281"/><line style="stroke:#181818;stroke-width:0.5;stroke-dasharray:5,5;" x1="470.1401" x2="470.1401" y1="138.8281" y2="1752.8047"/></g></g><g class="participant-lifeline" data-entity-uid="part4" data-qualified-name="API" id="part4-lifeline"><g><title>API Express</title><rect fill="#000000" fill-opacity="0.00000" height="1613.9766" width="8" x="675.855" y="138.8281"/><line style="stroke:#181818;stroke-width:0.5;stroke-dasharray:5,5;" x1="679.3174" x2="679.3174" y1="138.8281" y2="1752.8047"/></g></g><g class="participant-lifeline" data-entity-uid="part5" data-qualified-name="AuthMw" id="part5-lifeline"><g><title>authMiddleware</title><rect fill="#000000" fill-opacity="0.00000" height="1613.9766" width="8" x="850.8096" y="138.8281"/><line style="stroke:#181818;stroke-width:0.5;stroke-dasharray:5,5;" x1="854.3926" x2="854.3926" y1="138.8281" y2="1752.8047"/></g></g><g class="participant-lifeline" data-entity-uid="part6" data-qualified-name="RoleMw" id="part6-lifeline"><g><title>roleMiddleware</title><rect fill="#000000" fill-opacity="0.00000" height="1613.9766" width="8" x="971.6919" y="138.8281"/><line style="stroke:#181818;stroke-width:0.5;stroke-dasharray:5,5;" x1="975.2266" x2="975.2266" y1="138.8281" y2="1752.8047"/></g></g><g class="participant-lifeline" data-entity-uid="part7" data-qualified-name="Ctrl" id="part7-lifeline"><g><title>Contr.leur commande</title><rect fill="#000000" fill-opacity="0.00000" height="1613.9766" width="8" x="1120.1812" y="138.8281"/><line style="stroke:#181818;stroke-width:0.5;stroke-dasharray:5,5;" x1="1124.1572" x2="1124.1572" y1="138.8281" y2="1752.8047"/></g></g><g class="participant-lifeline" data-entity-uid="part8" data-qualified-name="CmdBe" id="part8-lifeline"><g><title>Service commande</title><rect fill="#000000" fill-opacity="0.00000" height="1613.9766" width="8" x="1372.2231" y="138.8281"/><line style="stroke:#181818;stroke-width:0.5;stroke-dasharray:5,5;" x1="1375.8164" x2="1375.8164" y1="138.8281" y2="1752.8047"/></g></g><g class="participant-lifeline" data-entity-uid="part9" data-qualified-name="CmdModel" id="part9-lifeline"><g><title>Mod.le Commande</title><rect fill="#000000" fill-opacity="0.00000" height="1613.9766" width="8" x="1532.7466" y="138.8281"/><line style="stroke:#181818;stroke-width:0.5;stroke-dasharray:5,5;" x1="1536.6606" x2="1536.6606" y1="138.8281" y2="1752.8047"/></g></g><g class="participant-lifeline" data-entity-uid="part10" data-qualified-name="MySQL" id="part10-lifeline"><g><title>MySQL</title><rect fill="#000000" fill-opacity="0.00000" height="1613.9766" width="8" x="1746.6982" y="138.8281"/><line style="stroke:#181818;stroke-width:0.5;stroke-dasharray:5,5;" x1="1750.3604" x2="1750.3604" y1="138.8281" y2="1752.8047"/></g></g><g class="participant participant-head" data-entity-uid="part1" data-qualified-name="Staff" id="part1-head"><text fill="#000000" font-family="sans-serif" font-size="14" lengthAdjust="spacing" textLength="62.248" x="54.0034" y="118.1426">Employ&#233; /</text><text fill="#000000" font-family="sans-serif" font-size="14" lengthAdjust="spacing" textLength="90.2549" x="40" y="135.752">Administrateur</text><ellipse cx="88.1274" cy="52.1094" fill="#E2E2F0" rx="8" ry="8" style="stroke:#181818;stroke-width:0.5;"/><path d="M88.1274,60.1094 L88.1274,87.1094 M75.1274,68.1094 L101.1274,68.1094 M88.1274,87.1094 L75.1274,102.1094 M88.1274,87.1094 L101.1274,102.1094" fill="none" style="stroke:#181818;stroke-width:0.5;"/></g><g class="participant participant-tail" data-entity-uid="part1" data-qualified-name="Staff" id="part1-tail"><text fill="#000000" font-family="sans-serif" font-size="14" lengthAdjust="spacing" textLength="62.248" x="54.0034" y="1766.3379">Employ&#233; /</text><text fill="#000000" font-family="sans-serif" font-size="14" lengthAdjust="spacing" textLength="90.2549" x="40" y="1783.9473">Administrateur</text><ellipse cx="88.1274" cy="1795.5234" fill="#E2E2F0" rx="8" ry="8" style="stroke:#181818;stroke-width:0.5;"/><path d="M88.1274,1803.5234 L88.1274,1830.5234 M75.1274,1811.5234 L101.1274,1811.5234 M88.1274,1830.5234 L75.1274,1845.5234 M88.1274,1830.5234 L101.1274,1845.5234" fill="none" style="stroke:#181818;stroke-width:0.5;"/></g><g class="participant participant-head" data-entity-uid="part2" data-qualified-name="Page" id="part2-head"><rect fill="#E2E2F0" height="49.2188" rx="2.5" ry="2.5" style="stroke:#181818;stroke-width:0.5;" width="192.2061" x="190.9341" y="88.6094"/><text fill="#000000" font-family="sans-serif" font-size="14" lengthAdjust="spacing" textLength="178.2061" x="197.9341" y="110.1426">Page EmployeeCommandes</text><text fill="#000000" font-family="sans-serif" font-size="14" lengthAdjust="spacing" textLength="171.9443" x="201.0649" y="127.752">(EmployeeCommandes.jsx)</text></g><g class="participant participant-tail" data-entity-uid="part2" data-qualified-name="Page" id="part2-tail"><rect fill="#E2E2F0" height="49.2188" rx="2.5" ry="2.5" style="stroke:#181818;stroke-width:0.5;" width="192.2061" x="190.9341" y="1751.8047"/><text fill="#000000" font-family="sans-serif" font-size="14" lengthAdjust="spacing" textLength="178.2061" x="197.9341" y="1773.3379">Page EmployeeCommandes</text><text fill="#000000" font-family="sans-serif" font-size="14" lengthAdjust="spacing" textLength="171.9443" x="201.0649" y="1790.9473">(EmployeeCommandes.jsx)</text></g><g class="participant participant-head" data-entity-uid="part3" data-qualified-name="CmdFe" id="part3-head"><rect fill="#E2E2F0" height="49.2188" rx="2.5" ry="2.5" style="stroke:#181818;stroke-width:0.5;" width="155.6064" x="393.1401" y="88.6094"/><text fill="#000000" font-family="sans-serif" font-size="14" lengthAdjust="spacing" textLength="141.6064" x="400.1401" y="110.1426">Service commande FE</text><text fill="#000000" font-family="sans-serif" font-size="14" lengthAdjust="spacing" textLength="140.8135" x="400.5366" y="127.752">(commande.service.js)</text></g><g class="participant participant-tail" data-entity-uid="part3" data-qualified-name="CmdFe" id="part3-tail"><rect fill="#E2E2F0" height="49.2188" rx="2.5" ry="2.5" style="stroke:#181818;stroke-width:0.5;" width="155.6064" x="393.1401" y="1751.8047"/><text fill="#000000" font-family="sans-serif" font-size="14" lengthAdjust="spacing" textLength="141.6064" x="400.1401" y="1773.3379">Service commande FE</text><text fill="#000000" font-family="sans-serif" font-size="14" lengthAdjust="spacing" textLength="140.8135" x="400.5366" y="1790.9473">(commande.service.js)</text></g><g class="participant participant-head" data-entity-uid="part4" data-qualified-name="API" id="part4-head"><rect fill="#E2E2F0" height="49.2188" rx="2.5" ry="2.5" style="stroke:#181818;stroke-width:0.5;" width="217.0752" x="571.3174" y="88.6094"/><text fill="#000000" font-family="sans-serif" font-size="14" lengthAdjust="spacing" textLength="77.0273" x="641.3413" y="110.1426">API Express</text><text fill="#000000" font-family="sans-serif" font-size="14" lengthAdjust="spacing" textLength="203.0752" x="578.3174" y="127.752">(PATCH /commandes/{id}/statut)</text></g><g class="participant participant-tail" data-entity-uid="part4" data-qualified-name="API" id="part4-tail"><rect fill="#E2E2F0" height="49.2188" rx="2.5" ry="2.5" style="stroke:#181818;stroke-width:0.5;" width="217.0752" x="571.3174" y="1751.8047"/><text fill="#000000" font-family="sans-serif" font-size="14" lengthAdjust="spacing" textLength="77.0273" x="641.3413" y="1773.3379">API Express</text><text fill="#000000" font-family="sans-serif" font-size="14" lengthAdjust="spacing" textLength="203.0752" x="578.3174" y="1790.9473">(PATCH /commandes/{id}/statut)</text></g><g class="participant participant-head" data-entity-uid="part5" data-qualified-name="AuthMw" id="part5-head"><rect fill="#E2E2F0" height="31.6094" rx="2.5" ry="2.5" style="stroke:#181818;stroke-width:0.5;" width="112.834" x="798.3926" y="106.2188"/><text fill="#000000" font-family="sans-serif" font-size="14" lengthAdjust="spacing" textLength="98.834" x="805.3926" y="127.752">authMiddleware</text></g><g class="participant participant-tail" data-entity-uid="part5" data-qualified-name="AuthMw" id="part5-tail"><rect fill="#E2E2F0" height="31.6094" rx="2.5" ry="2.5" style="stroke:#181818;stroke-width:0.5;" width="112.834" x="798.3926" y="1751.8047"/><text fill="#000000" font-family="sans-serif" font-size="14" lengthAdjust="spacing" textLength="98.834" x="805.3926" y="1773.3379">authMiddleware</text></g><g class="participant participant-head" data-entity-uid="part6" data-qualified-name="RoleMw" id="part6-head"><rect fill="#E2E2F0" height="31.6094" rx="2.5" ry="2.5" style="stroke:#181818;stroke-width:0.5;" width="108.9307" x="921.2266" y="106.2188"/><text fill="#000000" font-family="sans-serif" font-size="14" lengthAdjust="spacing" textLength="94.9307" x="928.2266" y="127.752">roleMiddleware</text></g><g class="participant participant-tail" data-entity-uid="part6" data-qualified-name="RoleMw" id="part6-tail"><rect fill="#E2E2F0" height="31.6094" rx="2.5" ry="2.5" style="stroke:#181818;stroke-width:0.5;" width="108.9307" x="921.2266" y="1751.8047"/><text fill="#000000" font-family="sans-serif" font-size="14" lengthAdjust="spacing" textLength="94.9307" x="928.2266" y="1773.3379">roleMiddleware</text></g><g class="participant participant-head" data-entity-uid="part7" data-qualified-name="Ctrl" id="part7-head"><rect fill="#E2E2F0" height="49.2188" rx="2.5" ry="2.5" style="stroke:#181818;stroke-width:0.5;" width="168.0479" x="1040.1572" y="88.6094"/><text fill="#000000" font-family="sans-serif" font-size="14" lengthAdjust="spacing" textLength="138.5098" x="1054.9263" y="110.1426">Contr&#244;leur commande</text><text fill="#000000" font-family="sans-serif" font-size="14" lengthAdjust="spacing" textLength="154.0479" x="1047.1572" y="127.752">(commande.controller.js)</text></g><g class="participant participant-tail" data-entity-uid="part7" data-qualified-name="Ctrl" id="part7-tail"><rect fill="#E2E2F0" height="49.2188" rx="2.5" ry="2.5" style="stroke:#181818;stroke-width:0.5;" width="168.0479" x="1040.1572" y="1751.8047"/><text fill="#000000" font-family="sans-serif" font-size="14" lengthAdjust="spacing" textLength="138.5098" x="1054.9263" y="1773.3379">Contr&#244;leur commande</text><text fill="#000000" font-family="sans-serif" font-size="14" lengthAdjust="spacing" textLength="154.0479" x="1047.1572" y="1790.9473">(commande.controller.js)</text></g><g class="participant participant-head" data-entity-uid="part8" data-qualified-name="CmdBe" id="part8-head"><rect fill="#E2E2F0" height="49.2188" rx="2.5" ry="2.5" style="stroke:#181818;stroke-width:0.5;" width="154.8135" x="1298.8164" y="88.6094"/><text fill="#000000" font-family="sans-serif" font-size="14" lengthAdjust="spacing" textLength="119.8271" x="1316.3096" y="110.1426">Service commande</text><text fill="#000000" font-family="sans-serif" font-size="14" lengthAdjust="spacing" textLength="140.8135" x="1305.8164" y="127.752">(commande.service.js)</text></g><g class="participant participant-tail" data-entity-uid="part8" data-qualified-name="CmdBe" id="part8-tail"><rect fill="#E2E2F0" height="49.2188" rx="2.5" ry="2.5" style="stroke:#181818;stroke-width:0.5;" width="154.8135" x="1298.8164" y="1751.8047"/><text fill="#000000" font-family="sans-serif" font-size="14" lengthAdjust="spacing" textLength="119.8271" x="1316.3096" y="1773.3379">Service commande</text><text fill="#000000" font-family="sans-serif" font-size="14" lengthAdjust="spacing" textLength="140.8135" x="1305.8164" y="1790.9473">(commande.service.js)</text></g><g class="participant participant-head" data-entity-uid="part9" data-qualified-name="CmdModel" id="part9-head"><rect fill="#E2E2F0" height="31.6094" rx="2.5" ry="2.5" style="stroke:#181818;stroke-width:0.5;" width="136.1719" x="1468.6606" y="106.2188"/><text fill="#000000" font-family="sans-serif" font-size="14" lengthAdjust="spacing" textLength="122.1719" x="1475.6606" y="127.752">Mod&#232;le Commande</text></g><g class="participant participant-tail" data-entity-uid="part9" data-qualified-name="CmdModel" id="part9-tail"><rect fill="#E2E2F0" height="31.6094" rx="2.5" ry="2.5" style="stroke:#181818;stroke-width:0.5;" width="136.1719" x="1468.6606" y="1751.8047"/><text fill="#000000" font-family="sans-serif" font-size="14" lengthAdjust="spacing" textLength="122.1719" x="1475.6606" y="1773.3379">Mod&#232;le Commande</text></g><g class="participant participant-head" data-entity-uid="part10" data-qualified-name="MySQL" id="part10-head"><text fill="#000000" font-family="sans-serif" font-size="14" lengthAdjust="spacing" textLength="46.6758" x="1724.3604" y="135.752">MySQL</text><path d="M1732.6982,85.2188 C1732.6982,75.2188 1750.6982,75.2188 1750.6982,75.2188 C1750.6982,75.2188 1768.6982,75.2188 1768.6982,85.2188 L1768.6982,111.2188 C1768.6982,121.2188 1750.6982,121.2188 1750.6982,121.2188 C1750.6982,121.2188 1732.6982,121.2188 1732.6982,111.2188 L1732.6982,85.2188" fill="#E2E2F0" style="stroke:#181818;stroke-width:0.5;"/><path d="M1732.6982,85.2188 C1732.6982,95.2188 1750.6982,95.2188 1750.6982,95.2188 C1750.6982,95.2188 1768.6982,95.2188 1768.6982,85.2188" fill="none" style="stroke:#181818;stroke-width:0.5;"/></g><g class="participant participant-tail" data-entity-uid="part10" data-qualified-name="MySQL" id="part10-tail"><text fill="#000000" font-family="sans-serif" font-size="14" lengthAdjust="spacing" textLength="46.6758" x="1724.3604" y="1766.3379">MySQL</text><path d="M1732.6982,1779.4141 C1732.6982,1769.4141 1750.6982,1769.4141 1750.6982,1769.4141 C1750.6982,1769.4141 1768.6982,1769.4141 1768.6982,1779.4141 L1768.6982,1805.4141 C1768.6982,1815.4141 1750.6982,1815.4141 1750.6982,1815.4141 C1750.6982,1815.4141 1732.6982,1815.4141 1732.6982,1805.4141 L1732.6982,1779.4141" fill="#E2E2F0" style="stroke:#181818;stroke-width:0.5;"/><path d="M1732.6982,1779.4141 C1732.6982,1789.4141 1750.6982,1789.4141 1750.6982,1789.4141 C1750.6982,1789.4141 1768.6982,1789.4141 1768.6982,1779.4141" fill="none" style="stroke:#181818;stroke-width:0.5;"/></g><g><title>Page EmployeeCommandes</title><rect fill="#FFFFFF" height="1555.2734" style="stroke:#181818;stroke-width:1;" width="10" x="282.0371" y="187.5313"/></g><g><title>Service commande FE</title><rect fill="#FFFFFF" height="1295.1094" style="stroke:#181818;stroke-width:1;" width="10" x="465.9434" y="217.8828"/></g><g><title>Service commande FE</title><rect fill="#FFFFFF" height="107.4063" style="stroke:#181818;stroke-width:1;" width="10" x="465.9434" y="1559.6953"/></g><g><title>API Express</title><rect fill="#FFFFFF" height="1201.7031" style="stroke:#181818;stroke-width:1;" width="10" x="674.855" y="280.9375"/></g><g><title>API Express</title><rect fill="#FFFFFF" height="30.3516" style="stroke:#181818;stroke-width:1;" width="10" x="674.855" y="1606.3984"/></g><g><title>authMiddleware</title><rect fill="#FFFFFF" height="192.9453" style="stroke:#181818;stroke-width:1;" width="10" x="849.8096" y="311.2891"/></g><g><title>roleMiddleware</title><rect fill="#FFFFFF" height="192.9453" style="stroke:#181818;stroke-width:1;" width="10" x="970.6919" y="534.5859"/></g><g><title>Contr.leur commande</title><rect fill="#FFFFFF" height="694.4063" style="stroke:#181818;stroke-width:1;" width="10" x="1119.1812" y="757.8828"/></g><g><title>Service commande</title><rect fill="#FFFFFF" height="633.7031" style="stroke:#181818;stroke-width:1;" width="10" x="1371.2231" y="788.2344"/></g><g><title>Mod.le Commande</title><rect fill="#FFFFFF" height="91.0547" style="stroke:#181818;stroke-width:1;" width="10" x="1531.7466" y="818.5859"/></g><g><title>Mod.le Commande</title><rect fill="#FFFFFF" height="91.0547" style="stroke:#181818;stroke-width:1;" width="10" x="1531.7466" y="1300.5313"/></g><g class="message" data-entity-1="part1" data-entity-2="part2" id="msg1"><polygon fill="#181818" points="270.0371,183.5313,280.0371,187.5313,270.0371,191.5313,274.0371,187.5313" style="stroke:#181818;stroke-width:1;"/><line style="stroke:#181818;stroke-width:1;" x1="88.1274" x2="276.0371" y1="187.5313" y2="187.5313"/><text fill="#000000" font-family="sans-serif" font-size="13" lengthAdjust="spacing" textLength="174.9097" x="95.1274" y="166.3232">S&#233;lectionne un nouveau statut</text><text fill="#000000" font-family="sans-serif" font-size="13" lengthAdjust="spacing" textLength="61.4263" x="95.1274" y="182.6748">puis valide</text></g><g class="message" data-entity-1="part2" data-entity-2="part3" id="msg2"><polygon fill="#181818" points="453.9434,213.8828,463.9434,217.8828,453.9434,221.8828,457.9434,217.8828" style="stroke:#181818;stroke-width:1;"/><line style="stroke:#181818;stroke-width:1;" x1="292.0371" x2="459.9434" y1="217.8828" y2="217.8828"/><text fill="#000000" font-family="sans-serif" font-size="13" lengthAdjust="spacing" textLength="131.5234" x="299.0371" y="213.0264">updateStatut(id, statut)</text></g><g class="message" data-entity-1="part3" data-entity-2="part4" id="msg3"><polygon fill="#181818" points="662.855,276.9375,672.855,280.9375,662.855,284.9375,666.855,280.9375" style="stroke:#181818;stroke-width:1;"/><line style="stroke:#181818;stroke-width:1;" x1="475.9434" x2="668.855" y1="280.9375" y2="280.9375"/><text fill="#000000" font-family="sans-serif" font-size="13" lengthAdjust="spacing" textLength="179.9116" x="482.9434" y="243.3779">PATCH /commandes/{id}/statut</text><text fill="#000000" font-family="sans-serif" font-size="13" lengthAdjust="spacing" textLength="47.7026" x="482.9434" y="259.7295">{ statut }</text><text fill="#000000" font-family="sans-serif" font-size="13" lengthAdjust="spacing" textLength="135.2622" x="482.9434" y="276.0811">Authorization: Bearer &#8230;</text></g><g class="message" data-entity-1="part4" data-entity-2="part5" id="msg4"><polygon fill="#181818" points="837.8096,307.2891,847.8096,311.2891,837.8096,315.2891,841.8096,311.2891" style="stroke:#181818;stroke-width:1;"/><line style="stroke:#181818;stroke-width:1;" x1="684.855" x2="843.8096" y1="311.2891" y2="311.2891"/><text fill="#000000" font-family="sans-serif" font-size="13" lengthAdjust="spacing" textLength="80.9009" x="691.855" y="306.4326">V&#233;rifie le JWT</text></g><path d="M10,326.2891 L70.1709,326.2891 L70.1709,334.6406 L60.1709,344.6406 L10,344.6406 L10,326.2891" fill="#EEEEEE" style="stroke:#000000;stroke-width:1.5;"/><rect fill="none" height="1409.5156" style="stroke:#000000;stroke-width:1.5;" width="1797.0361" x="10" y="326.2891"/><text fill="#000000" font-family="sans-serif" font-size="13" font-weight="bold" lengthAdjust="spacing" textLength="15.1709" x="25" y="340.7842">alt</text><text fill="#000000" font-family="sans-serif" font-size="11" font-weight="bold" lengthAdjust="spacing" textLength="155.8423" x="85.1709" y="339.708">[Token manquant ou invalide]</text><g class="message" data-entity-1="part5" data-entity-2="part4" id="msg5"><polygon fill="#181818" points="695.855,362.9922,685.855,366.9922,695.855,370.9922,691.855,366.9922" style="stroke:#181818;stroke-width:1;"/><line style="stroke:#181818;stroke-width:1;stroke-dasharray:2,2;" x1="689.855" x2="848.8096" y1="366.9922" y2="366.9922"/><text fill="#000000" font-family="sans-serif" font-size="13" lengthAdjust="spacing" textLength="100.4453" x="701.855" y="362.1357">401 Acc&#232;s refus&#233;</text></g><g class="message" data-entity-1="part4" data-entity-2="part3" id="msg6"><polygon fill="#181818" points="486.9434,393.3438,476.9434,397.3438,486.9434,401.3438,482.9434,397.3438" style="stroke:#181818;stroke-width:1;"/><line style="stroke:#181818;stroke-width:1;stroke-dasharray:2,2;" x1="480.9434" x2="673.855" y1="397.3438" y2="397.3438"/><text fill="#000000" font-family="sans-serif" font-size="13" lengthAdjust="spacing" textLength="21.6899" x="492.9434" y="392.4873">401</text></g><g class="message" data-entity-1="part3" data-entity-2="part2" id="msg7"><polygon fill="#181818" points="303.0371,423.6953,293.0371,427.6953,303.0371,431.6953,299.0371,427.6953" style="stroke:#181818;stroke-width:1;"/><line style="stroke:#181818;stroke-width:1;stroke-dasharray:2,2;" x1="297.0371" x2="464.9434" y1="427.6953" y2="427.6953"/><text fill="#000000" font-family="sans-serif" font-size="13" lengthAdjust="spacing" textLength="90.2954" x="309.0371" y="422.8389">Error(message)</text></g><g class="message" data-entity-1="part2" data-entity-2="part1" id="msg8"><polygon fill="#181818" points="99.1274,454.0469,89.1274,458.0469,99.1274,462.0469,95.1274,458.0469" style="stroke:#181818;stroke-width:1;"/><line style="stroke:#181818;stroke-width:1;stroke-dasharray:2,2;" x1="93.1274" x2="281.0371" y1="458.0469" y2="458.0469"/><text fill="#000000" font-family="sans-serif" font-size="13" lengthAdjust="spacing" textLength="83.4019" x="105.1274" y="453.1904">Affiche l'erreur</text></g><line style="stroke:#000000;stroke-width:1;stroke-dasharray:2,2;" x1="10" x2="1807.0361" y1="467.0469" y2="467.0469"/><text fill="#000000" font-family="sans-serif" font-size="11" font-weight="bold" lengthAdjust="spacing" textLength="73.96" x="15" y="478.4658">[Token valide]</text><g class="message" data-entity-1="part5" data-entity-2="part4" id="msg9"><polygon fill="#181818" points="695.855,500.2344,685.855,504.2344,695.855,508.2344,691.855,504.2344" style="stroke:#181818;stroke-width:1;"/><line style="stroke:#181818;stroke-width:1;stroke-dasharray:2,2;" x1="689.855" x2="853.8096" y1="504.2344" y2="504.2344"/><text fill="#000000" font-family="sans-serif" font-size="13" lengthAdjust="spacing" textLength="108.3989" x="701.855" y="499.3779">req.user renseign&#233;</text></g><g class="message" data-entity-1="part4" data-entity-2="part6" id="msg10"><polygon fill="#181818" points="958.6919,530.5859,968.6919,534.5859,958.6919,538.5859,962.6919,534.5859" style="stroke:#181818;stroke-width:1;"/><line style="stroke:#181818;stroke-width:1;" x1="684.855" x2="964.6919" y1="534.5859" y2="534.5859"/><text fill="#000000" font-family="sans-serif" font-size="13" lengthAdjust="spacing" textLength="96.7637" x="691.855" y="529.7295">role_id &#8712; {2, 3} ?</text></g><path d="M20,549.5859 L80.1709,549.5859 L80.1709,557.9375 L70.1709,567.9375 L20,567.9375 L20,549.5859" fill="#EEEEEE" style="stroke:#000000;stroke-width:1.5;"/><rect fill="none" height="1179.2188" style="stroke:#000000;stroke-width:1.5;" width="1777.0361" x="20" y="549.5859"/><text fill="#000000" font-family="sans-serif" font-size="13" font-weight="bold" lengthAdjust="spacing" textLength="15.1709" x="35" y="564.0811">alt</text><text fill="#000000" font-family="sans-serif" font-size="11" font-weight="bold" lengthAdjust="spacing" textLength="238.063" x="95.1709" y="563.0049">[R&#244;le client (role_id = 1) ou autre r&#244;le interdit]</text><g class="message" data-entity-1="part6" data-entity-2="part4" id="msg11"><polygon fill="#181818" points="695.855,586.2891,685.855,590.2891,695.855,594.2891,691.855,590.2891" style="stroke:#181818;stroke-width:1;"/><line style="stroke:#181818;stroke-width:1;stroke-dasharray:2,2;" x1="689.855" x2="969.6919" y1="590.2891" y2="590.2891"/><text fill="#000000" font-family="sans-serif" font-size="13" lengthAdjust="spacing" textLength="103.3335" x="701.855" y="585.4326">403 Acc&#232;s interdit</text></g><g class="message" data-entity-1="part4" data-entity-2="part3" id="msg12"><polygon fill="#181818" points="486.9434,616.6406,476.9434,620.6406,486.9434,624.6406,482.9434,620.6406" style="stroke:#181818;stroke-width:1;"/><line style="stroke:#181818;stroke-width:1;stroke-dasharray:2,2;" x1="480.9434" x2="673.855" y1="620.6406" y2="620.6406"/><text fill="#000000" font-family="sans-serif" font-size="13" lengthAdjust="spacing" textLength="21.6899" x="492.9434" y="615.7842">403</text></g><g class="message" data-entity-1="part3" data-entity-2="part2" id="msg13"><polygon fill="#181818" points="303.0371,646.9922,293.0371,650.9922,303.0371,654.9922,299.0371,650.9922" style="stroke:#181818;stroke-width:1;"/><line style="stroke:#181818;stroke-width:1;stroke-dasharray:2,2;" x1="297.0371" x2="464.9434" y1="650.9922" y2="650.9922"/><text fill="#000000" font-family="sans-serif" font-size="13" lengthAdjust="spacing" textLength="90.2954" x="309.0371" y="646.1357">Error(message)</text></g><g class="message" data-entity-1="part2" data-entity-2="part1" id="msg14"><polygon fill="#181818" points="99.1274,677.3438,89.1274,681.3438,99.1274,685.3438,95.1274,681.3438" style="stroke:#181818;stroke-width:1;"/><line style="stroke:#181818;stroke-width:1;stroke-dasharray:2,2;" x1="93.1274" x2="281.0371" y1="681.3438" y2="681.3438"/><text fill="#000000" font-family="sans-serif" font-size="13" lengthAdjust="spacing" textLength="83.4019" x="105.1274" y="676.4873">Affiche l'erreur</text></g><line style="stroke:#000000;stroke-width:1;stroke-dasharray:2,2;" x1="20" x2="1797.0361" y1="690.3438" y2="690.3438"/><text fill="#000000" font-family="sans-serif" font-size="11" font-weight="bold" lengthAdjust="spacing" textLength="150.96" x="25" y="701.7627">[Employ&#233; ou Administrateur]</text><g class="message" data-entity-1="part6" data-entity-2="part4" id="msg15"><polygon fill="#181818" points="695.855,723.5313,685.855,727.5313,695.855,731.5313,691.855,727.5313" style="stroke:#181818;stroke-width:1;"/><line style="stroke:#181818;stroke-width:1;stroke-dasharray:2,2;" x1="689.855" x2="974.6919" y1="727.5313" y2="727.5313"/><text fill="#000000" font-family="sans-serif" font-size="13" lengthAdjust="spacing" textLength="46.249" x="701.855" y="722.6748">autoris&#233;</text></g><g class="message" data-entity-1="part4" data-entity-2="part7" id="msg16"><polygon fill="#181818" points="1107.1812,753.8828,1117.1812,757.8828,1107.1812,761.8828,1111.1812,757.8828" style="stroke:#181818;stroke-width:1;"/><line style="stroke:#181818;stroke-width:1;" x1="684.855" x2="1113.1812" y1="757.8828" y2="757.8828"/><text fill="#000000" font-family="sans-serif" font-size="13" lengthAdjust="spacing" textLength="126.458" x="691.855" y="753.0264">updateStatut(req, res)</text></g><g class="message" data-entity-1="part7" data-entity-2="part8" id="msg17"><polygon fill="#181818" points="1359.2231,784.2344,1369.2231,788.2344,1359.2231,792.2344,1363.2231,788.2344" style="stroke:#181818;stroke-width:1;"/><line style="stroke:#181818;stroke-width:1;" x1="1129.1812" x2="1365.2231" y1="788.2344" y2="788.2344"/><text fill="#000000" font-family="sans-serif" font-size="13" lengthAdjust="spacing" textLength="131.5234" x="1136.1812" y="783.3779">updateStatut(id, statut)</text></g><g class="message" data-entity-1="part8" data-entity-2="part9" id="msg18"><polygon fill="#181818" points="1519.7466,814.5859,1529.7466,818.5859,1519.7466,822.5859,1523.7466,818.5859" style="stroke:#181818;stroke-width:1;"/><line style="stroke:#181818;stroke-width:1;" x1="1381.2231" x2="1525.7466" y1="818.5859" y2="818.5859"/><text fill="#000000" font-family="sans-serif" font-size="13" lengthAdjust="spacing" textLength="52.0063" x="1388.2231" y="813.7295">exists(id)</text></g><g class="message" data-entity-1="part9" data-entity-2="part10" id="msg19"><polygon fill="#181818" points="1738.6982,844.9375,1748.6982,848.9375,1738.6982,852.9375,1742.6982,848.9375" style="stroke:#181818;stroke-width:1;"/><line style="stroke:#181818;stroke-width:1;" x1="1541.7466" x2="1744.6982" y1="848.9375" y2="848.9375"/><text fill="#000000" font-family="sans-serif" font-size="13" lengthAdjust="spacing" textLength="135.8398" x="1548.7466" y="844.0811">SELECT commande_id</text></g><g class="message" data-entity-1="part10" data-entity-2="part9" id="msg20"><polygon fill="#181818" points="1552.7466,875.2891,1542.7466,879.2891,1552.7466,883.2891,1548.7466,879.2891" style="stroke:#181818;stroke-width:1;"/><line style="stroke:#181818;stroke-width:1;stroke-dasharray:2,2;" x1="1546.7466" x2="1749.6982" y1="879.2891" y2="879.2891"/><text fill="#000000" font-family="sans-serif" font-size="13" lengthAdjust="spacing" textLength="110.5635" x="1558.7466" y="874.4326">trouv&#233; / introuvable</text></g><g class="message" data-entity-1="part9" data-entity-2="part8" id="msg21"><polygon fill="#181818" points="1392.2231,905.6406,1382.2231,909.6406,1392.2231,913.6406,1388.2231,909.6406" style="stroke:#181818;stroke-width:1;"/><line style="stroke:#181818;stroke-width:1;stroke-dasharray:2,2;" x1="1386.2231" x2="1535.7466" y1="909.6406" y2="909.6406"/><text fill="#000000" font-family="sans-serif" font-size="13" lengthAdjust="spacing" textLength="46.2681" x="1398.2231" y="904.7842">bool&#233;en</text></g><path d="M30,924.6406 L90.1709,924.6406 L90.1709,932.9922 L80.1709,942.9922 L30,942.9922 L30,924.6406" fill="#EEEEEE" style="stroke:#000000;stroke-width:1.5;"/><rect fill="none" height="797.1641" style="stroke:#000000;stroke-width:1.5;" width="1757.0361" x="30" y="924.6406"/><text fill="#000000" font-family="sans-serif" font-size="13" font-weight="bold" lengthAdjust="spacing" textLength="15.1709" x="45" y="939.1357">alt</text><text fill="#000000" font-family="sans-serif" font-size="11" font-weight="bold" lengthAdjust="spacing" textLength="129.5669" x="105.1709" y="938.0596">[Commande introuvable]</text><g class="message" data-entity-1="part8" data-entity-2="part7" id="msg22"><polygon fill="#181818" points="1140.1812,961.3438,1130.1812,965.3438,1140.1812,969.3438,1136.1812,965.3438" style="stroke:#181818;stroke-width:1;"/><line style="stroke:#181818;stroke-width:1;stroke-dasharray:2,2;" x1="1134.1812" x2="1370.2231" y1="965.3438" y2="965.3438"/><text fill="#000000" font-family="sans-serif" font-size="13" lengthAdjust="spacing" textLength="184.793" x="1146.1812" y="960.4873">Error("Commande introuvable.")</text></g><g class="message" data-entity-1="part7" data-entity-2="part4" id="msg23"><polygon fill="#181818" points="695.855,991.6953,685.855,995.6953,695.855,999.6953,691.855,995.6953" style="stroke:#181818;stroke-width:1;"/><line style="stroke:#181818;stroke-width:1;stroke-dasharray:2,2;" x1="689.855" x2="1118.1812" y1="995.6953" y2="995.6953"/><text fill="#000000" font-family="sans-serif" font-size="13" lengthAdjust="spacing" textLength="21.6899" x="701.855" y="990.8389">404</text></g><g class="message" data-entity-1="part4" data-entity-2="part3" id="msg24"><polygon fill="#181818" points="486.9434,1022.0469,476.9434,1026.0469,486.9434,1030.0469,482.9434,1026.0469" style="stroke:#181818;stroke-width:1;"/><line style="stroke:#181818;stroke-width:1;stroke-dasharray:2,2;" x1="480.9434" x2="673.855" y1="1026.0469" y2="1026.0469"/><text fill="#000000" font-family="sans-serif" font-size="13" lengthAdjust="spacing" textLength="21.6899" x="492.9434" y="1021.1904">404</text></g><g class="message" data-entity-1="part3" data-entity-2="part2" id="msg25"><polygon fill="#181818" points="303.0371,1052.3984,293.0371,1056.3984,303.0371,1060.3984,299.0371,1056.3984" style="stroke:#181818;stroke-width:1;"/><line style="stroke:#181818;stroke-width:1;stroke-dasharray:2,2;" x1="297.0371" x2="464.9434" y1="1056.3984" y2="1056.3984"/><text fill="#000000" font-family="sans-serif" font-size="13" lengthAdjust="spacing" textLength="90.2954" x="309.0371" y="1051.542">Error(message)</text></g><g class="message" data-entity-1="part2" data-entity-2="part1" id="msg26"><polygon fill="#181818" points="99.1274,1082.75,89.1274,1086.75,99.1274,1090.75,95.1274,1086.75" style="stroke:#181818;stroke-width:1;"/><line style="stroke:#181818;stroke-width:1;stroke-dasharray:2,2;" x1="93.1274" x2="281.0371" y1="1086.75" y2="1086.75"/><text fill="#000000" font-family="sans-serif" font-size="13" lengthAdjust="spacing" textLength="83.4019" x="105.1274" y="1081.8936">Affiche l'erreur</text></g><line style="stroke:#000000;stroke-width:1;stroke-dasharray:2,2;" x1="30" x2="1787.0361" y1="1095.75" y2="1095.75"/><text fill="#000000" font-family="sans-serif" font-size="11" font-weight="bold" lengthAdjust="spacing" textLength="107.5508" x="35" y="1107.1689">[Statut non autoris&#233;]</text><g class="message" data-entity-1="part8" data-entity-2="part7" id="msg27"><polygon fill="#181818" points="1140.1812,1128.9375,1130.1812,1132.9375,1140.1812,1136.9375,1136.1812,1132.9375" style="stroke:#181818;stroke-width:1;"/><line style="stroke:#181818;stroke-width:1;stroke-dasharray:2,2;" x1="1134.1812" x2="1370.2231" y1="1132.9375" y2="1132.9375"/><text fill="#000000" font-family="sans-serif" font-size="13" lengthAdjust="spacing" textLength="218.042" x="1146.1812" y="1128.0811">Error("Statut de commande invalide.")</text></g><g class="message" data-entity-1="part7" data-entity-2="part4" id="msg28"><polygon fill="#181818" points="695.855,1159.2891,685.855,1163.2891,695.855,1167.2891,691.855,1163.2891" style="stroke:#181818;stroke-width:1;"/><line style="stroke:#181818;stroke-width:1;stroke-dasharray:2,2;" x1="689.855" x2="1118.1812" y1="1163.2891" y2="1163.2891"/><text fill="#000000" font-family="sans-serif" font-size="13" lengthAdjust="spacing" textLength="54.2153" x="701.855" y="1158.4326">400 / 409</text></g><g class="message" data-entity-1="part4" data-entity-2="part3" id="msg29"><polygon fill="#181818" points="486.9434,1189.6406,476.9434,1193.6406,486.9434,1197.6406,482.9434,1193.6406" style="stroke:#181818;stroke-width:1;"/><line style="stroke:#181818;stroke-width:1;stroke-dasharray:2,2;" x1="480.9434" x2="673.855" y1="1193.6406" y2="1193.6406"/><text fill="#000000" font-family="sans-serif" font-size="13" lengthAdjust="spacing" textLength="34.6772" x="492.9434" y="1188.7842">erreur</text></g><g class="message" data-entity-1="part3" data-entity-2="part2" id="msg30"><polygon fill="#181818" points="303.0371,1219.9922,293.0371,1223.9922,303.0371,1227.9922,299.0371,1223.9922" style="stroke:#181818;stroke-width:1;"/><line style="stroke:#181818;stroke-width:1;stroke-dasharray:2,2;" x1="297.0371" x2="464.9434" y1="1223.9922" y2="1223.9922"/><text fill="#000000" font-family="sans-serif" font-size="13" lengthAdjust="spacing" textLength="90.2954" x="309.0371" y="1219.1357">Error(message)</text></g><g class="message" data-entity-1="part2" data-entity-2="part1" id="msg31"><polygon fill="#181818" points="99.1274,1250.3438,89.1274,1254.3438,99.1274,1258.3438,95.1274,1254.3438" style="stroke:#181818;stroke-width:1;"/><line style="stroke:#181818;stroke-width:1;stroke-dasharray:2,2;" x1="93.1274" x2="281.0371" y1="1254.3438" y2="1254.3438"/><text fill="#000000" font-family="sans-serif" font-size="13" lengthAdjust="spacing" textLength="83.4019" x="105.1274" y="1249.4873">Affiche l'erreur</text></g><line style="stroke:#000000;stroke-width:1;stroke-dasharray:2,2;" x1="30" x2="1787.0361" y1="1263.3438" y2="1263.3438"/><text fill="#000000" font-family="sans-serif" font-size="11" font-weight="bold" lengthAdjust="spacing" textLength="72.73" x="35" y="1274.7627">[Statut valide]</text><g class="message" data-entity-1="part8" data-entity-2="part9" id="msg32"><polygon fill="#181818" points="1519.7466,1296.5313,1529.7466,1300.5313,1519.7466,1304.5313,1523.7466,1300.5313" style="stroke:#181818;stroke-width:1;"/><line style="stroke:#181818;stroke-width:1;" x1="1381.2231" x2="1525.7466" y1="1300.5313" y2="1300.5313"/><text fill="#000000" font-family="sans-serif" font-size="13" lengthAdjust="spacing" textLength="131.5234" x="1388.2231" y="1295.6748">updateStatut(id, statut)</text></g><g class="message" data-entity-1="part9" data-entity-2="part10" id="msg33"><polygon fill="#181818" points="1738.6982,1326.8828,1748.6982,1330.8828,1738.6982,1334.8828,1742.6982,1330.8828" style="stroke:#181818;stroke-width:1;"/><line style="stroke:#181818;stroke-width:1;" x1="1541.7466" x2="1744.6982" y1="1330.8828" y2="1330.8828"/><text fill="#000000" font-family="sans-serif" font-size="13" lengthAdjust="spacing" textLength="184.9517" x="1548.7466" y="1326.0264">UPDATE commande SET statut</text></g><g class="message" data-entity-1="part10" data-entity-2="part9" id="msg34"><polygon fill="#181818" points="1552.7466,1357.2344,1542.7466,1361.2344,1552.7466,1365.2344,1548.7466,1361.2344" style="stroke:#181818;stroke-width:1;"/><line style="stroke:#181818;stroke-width:1;stroke-dasharray:2,2;" x1="1546.7466" x2="1749.6982" y1="1361.2344" y2="1361.2344"/><text fill="#000000" font-family="sans-serif" font-size="13" lengthAdjust="spacing" textLength="18.7827" x="1558.7466" y="1356.3779">OK</text></g><g class="message" data-entity-1="part9" data-entity-2="part8" id="msg35"><polygon fill="#181818" points="1392.2231,1387.5859,1382.2231,1391.5859,1392.2231,1395.5859,1388.2231,1391.5859" style="stroke:#181818;stroke-width:1;"/><line style="stroke:#181818;stroke-width:1;stroke-dasharray:2,2;" x1="1386.2231" x2="1535.7466" y1="1391.5859" y2="1391.5859"/><text fill="#000000" font-family="sans-serif" font-size="13" lengthAdjust="spacing" textLength="18.7827" x="1398.2231" y="1386.7295">OK</text></g><g class="message" data-entity-1="part8" data-entity-2="part7" id="msg36"><polygon fill="#181818" points="1140.1812,1417.9375,1130.1812,1421.9375,1140.1812,1425.9375,1136.1812,1421.9375" style="stroke:#181818;stroke-width:1;"/><line style="stroke:#181818;stroke-width:1;stroke-dasharray:2,2;" x1="1134.1812" x2="1375.2231" y1="1421.9375" y2="1421.9375"/><text fill="#000000" font-family="sans-serif" font-size="13" lengthAdjust="spacing" textLength="40.46" x="1146.1812" y="1417.0811">succ&#232;s</text></g><g class="message" data-entity-1="part7" data-entity-2="part4" id="msg37"><polygon fill="#181818" points="695.855,1448.2891,685.855,1452.2891,695.855,1456.2891,691.855,1452.2891" style="stroke:#181818;stroke-width:1;"/><line style="stroke:#181818;stroke-width:1;stroke-dasharray:2,2;" x1="689.855" x2="1123.1812" y1="1452.2891" y2="1452.2891"/><text fill="#000000" font-family="sans-serif" font-size="13" lengthAdjust="spacing" textLength="156.1016" x="701.855" y="1447.4326">200 { message de succ&#232;s }</text></g><g class="message" data-entity-1="part4" data-entity-2="part3" id="msg38"><polygon fill="#181818" points="486.9434,1478.6406,476.9434,1482.6406,486.9434,1486.6406,482.9434,1482.6406" style="stroke:#181818;stroke-width:1;"/><line style="stroke:#181818;stroke-width:1;stroke-dasharray:2,2;" x1="480.9434" x2="678.855" y1="1482.6406" y2="1482.6406"/><text fill="#000000" font-family="sans-serif" font-size="13" lengthAdjust="spacing" textLength="21.6899" x="492.9434" y="1477.7842">200</text></g><g class="message" data-entity-1="part3" data-entity-2="part2" id="msg39"><polygon fill="#181818" points="303.0371,1508.9922,293.0371,1512.9922,303.0371,1516.9922,299.0371,1512.9922" style="stroke:#181818;stroke-width:1;"/><line style="stroke:#181818;stroke-width:1;stroke-dasharray:2,2;" x1="297.0371" x2="469.9434" y1="1512.9922" y2="1512.9922"/><text fill="#000000" font-family="sans-serif" font-size="13" lengthAdjust="spacing" textLength="40.46" x="309.0371" y="1508.1357">succ&#232;s</text></g><g class="message" data-entity-1="part2" data-entity-2="part3" id="msg40"><polygon fill="#181818" points="453.9434,1555.6953,463.9434,1559.6953,453.9434,1563.6953,457.9434,1559.6953" style="stroke:#181818;stroke-width:1;"/><line style="stroke:#181818;stroke-width:1;" x1="292.0371" x2="459.9434" y1="1559.6953" y2="1559.6953"/><text fill="#000000" font-family="sans-serif" font-size="13" lengthAdjust="spacing" textLength="100.4263" x="299.0371" y="1538.4873">getCommandes()</text><text fill="#000000" font-family="sans-serif" font-size="13" lengthAdjust="spacing" textLength="104.749" x="299.0371" y="1554.8389">(rafra&#238;chissement)</text></g><g class="message" data-entity-1="part3" data-entity-2="part4" id="msg41"><polygon fill="#181818" points="662.855,1602.3984,672.855,1606.3984,662.855,1610.3984,666.855,1606.3984" style="stroke:#181818;stroke-width:1;"/><line style="stroke:#181818;stroke-width:1;" x1="475.9434" x2="668.855" y1="1606.3984" y2="1606.3984"/><text fill="#000000" font-family="sans-serif" font-size="13" lengthAdjust="spacing" textLength="104.7554" x="482.9434" y="1585.1904">GET /commandes</text><text fill="#000000" font-family="sans-serif" font-size="13" lengthAdjust="spacing" textLength="52.1587" x="482.9434" y="1601.542">Bearer &#8230;</text></g><g class="message" data-entity-1="part4" data-entity-2="part3" id="msg42"><polygon fill="#181818" points="486.9434,1632.75,476.9434,1636.75,486.9434,1640.75,482.9434,1636.75" style="stroke:#181818;stroke-width:1;"/><line style="stroke:#181818;stroke-width:1;stroke-dasharray:2,2;" x1="480.9434" x2="678.855" y1="1636.75" y2="1636.75"/><text fill="#000000" font-family="sans-serif" font-size="13" lengthAdjust="spacing" textLength="122.1099" x="492.9434" y="1631.8936">liste des commandes</text></g><g class="message" data-entity-1="part3" data-entity-2="part2" id="msg43"><polygon fill="#181818" points="303.0371,1663.1016,293.0371,1667.1016,303.0371,1671.1016,299.0371,1667.1016" style="stroke:#181818;stroke-width:1;"/><line style="stroke:#181818;stroke-width:1;stroke-dasharray:2,2;" x1="297.0371" x2="469.9434" y1="1667.1016" y2="1667.1016"/><text fill="#000000" font-family="sans-serif" font-size="13" lengthAdjust="spacing" textLength="86.0107" x="309.0371" y="1662.2451">donn&#233;es &#224; jour</text></g><g class="message" data-entity-1="part2" data-entity-2="part1" id="msg44"><polygon fill="#181818" points="99.1274,1709.8047,89.1274,1713.8047,99.1274,1717.8047,95.1274,1713.8047" style="stroke:#181818;stroke-width:1;"/><line style="stroke:#181818;stroke-width:1;stroke-dasharray:2,2;" x1="93.1274" x2="281.0371" y1="1713.8047" y2="1713.8047"/><text fill="#000000" font-family="sans-serif" font-size="13" lengthAdjust="spacing" textLength="109.8335" x="105.1274" y="1692.5967">Affiche le message</text><text fill="#000000" font-family="sans-serif" font-size="13" lengthAdjust="spacing" textLength="113.4517" x="105.1274" y="1708.9482">et la liste actualis&#233;e</text></g><?plantuml-src jLRDRXit4BxlKmnqYGJuBx4lDP0KaYBtBqQTI6ql0WfwTsGptUNA95TnOXZ8CG-G1yYfY2uzzGtsJV8a7PBB_TDAzgKNUqNE36U-xviXDTSnmalEhYHB4eG8GUNhcmn5YF3jusSuvmeX_m9lqqn2b87IJ6SQeYUPG0ZJ964YmY1WeKubz2R9CaxVvsiud8jXb731bPPCOoPxm1HCDLiiWYMJceTyoOI6tWMxGd1kYECYdfgB_iRQmLjrEx1XZ4ypoXJbYeTLGd0seH3-ru5osnJ11HWdqLahml3Y9vZSBYKgS_Z5S3R-4Gvz07LunwFxGrUx2q7spG0iqzVdF8fYVCSaEXkpzAvf9jCOMsPlp5BBR9mABVD_OqAkBAfUKMZsqpX6MHMbPRmRbGSW6RKWEK-Z_2kfmpFWxMWTuo1Ycbqo4aVl_FtqzIkxQR-2mD8C-oyiKN0AqtmTOwXvAaWpcG2HPYjaNajpiSouWXMBEIc9XCHNf1X7Sc0ZK2JB68NAbdGkJgrZdqTxHOn1vUUu3Pm3UHfYJs4NeNDnvsLzJx8bqbB9Fp2JxocCa6YIr0f_LqSOxWCJruIt7DC9l-ThoHSSWH3x-OzPpTgf862nXbdw5mgW56uo0t6Q0HT5uG7uMFjbrYT7Js4OXlbN1H8N6NMciJ87ro0X8rejwgr0dqYPodv2UgRV0x9mK9A1e-SKXei53wyfuISe9Gaj230cFbsEExAIU7EGaNxeGoZaLyAc5U56nKMkBmg56rVw-9D7yEtJ9xXxjWV7z_0zcPMUHIkO9KBhZMa026EEX5NV-pw7fmE373MSHB1DGYXgb17NnXFySNKSZpsEfQKnt8JosAu_3EQZu0ImW9P3aP9k3iKjwL9bf437TWFO2fuIMjFrxRuWWlQ87EKIhJh330XNdt5oTOzsTbNJtuu83z38zwKT1nG4RwakHUwRRcvY58xEddpjj33ZOV9gCfwLKueujgPkUxzv20szR6Nk5qEa-MQNCROYrmgxJDCuNwDe0rdcv58bhVaXruXhTyjgAxIT77fTFWUzWVUo8DSqU59iRAhkf3heGTqzKdc5zXodD755JLKFb5NuHBNhr4-f7TKT4ISdHzzjgR58x7ykinfQsqIwK-dRHDijszykNWvdamgZwMHMH2kSEWNywoyR8MjwBNUtQhM3DfNPqTRfES9klfuHNtTG86vVVIu8t7U4CNEZcrOAisblhySjJE_AzQnahdthNw4kdu7z0JrZ95j8blyJNdEbCA7heOl0CsncuMl_WOYgNW9pKRlYMq5C9Ts5npJh36wgv5zr0x45XuZUGZIOb7zQFmgGhbv0J-9Se8QO5PbHc8oQWRgzY84YiXUI-MV_r8woJwt_0000?></g></svg>